<?xml version="1.0" standalone="no"?>
<!DOCTYPE svg PUBLIC "-//W3C//DTD SVG 20010904//EN"
 "http://www.w3.org/TR/2001/REC-SVG-20010904/DTD/svg10.dtd">
<svg version="1.0" xmlns="http://www.w3.org/2000/svg"
 width="691.000000pt" height="361.000000pt" viewBox="0 0 691.000000 361.000000"
 preserveAspectRatio="xMidYMid meet">

<g transform="translate(0.000000,361.000000) scale(0.100000,-0.100000)"
fill="#000000" stroke="none">
<path d="M2465 3037 c-3 -7 -4 -60 -3 -118 l3 -104 555 -6 c472 -4 563 -8 610
-21 203 -60 352 -167 453 -324 87 -137 120 -249 120 -409 0 -180 -51 -329
-163 -469 -161 -203 -423 -310 -676 -276 -289 38 -525 230 -619 504 -17 51
-35 98 -39 104 -9 14 -204 16 -225 3 -13 -8 -12 -21 6 -93 83 -337 326 -605
648 -715 550 -187 1130 130 1287 705 17 63 21 106 21 237 0 131 -4 174 -21
237 -100 368 -358 626 -730 731 -74 20 -100 21 -650 25 -478 2 -573 1 -577
-11z"/>
<path d="M4337 2853 c-3 -5 -1 -17 4 -28 7 -17 8 -17 8 8 1 27 -4 34 -12 20z"/>
<path d="M2472 2672 c-9 -6 -12 -38 -10 -123 l3 -114 430 0 430 0 3 109 c2 71
-1 113 -9 122 -9 12 -83 14 -423 14 -226 0 -417 -4 -424 -8z"/>
<path d="M2464 2287 c-2 -7 -3 -60 -2 -118 l3 -104 243 -3 242 -2 0 120 0 120
-240 0 c-190 0 -242 -3 -246 -13z"/>
<path d="M3091 792 c-73 -40 -89 -128 -35 -191 91 -109 266 0 211 131 -28 68
-112 96 -176 60z m126 -47 c31 -31 35 -40 30 -72 -8 -50 -45 -85 -89 -86 -98
-3 -141 105 -66 168 43 36 82 33 125 -10z"/>
<path d="M2530 680 c0 -98 3 -120 14 -120 11 0 16 15 18 53 l3 52 73 3 c55 2
72 6 72 17 0 12 -16 15 -75 15 l-75 0 0 35 0 35 85 0 c69 0 85 3 85 15 0 12
-18 15 -100 15 l-100 0 0 -120z"/>
<path d="M2770 680 c0 -98 3 -120 14 -120 11 0 16 15 18 53 l3 52 42 3 c42 3
43 2 78 -52 34 -54 65 -73 65 -41 0 8 -4 15 -8 15 -5 0 -17 16 -27 34 l-19 35
27 25 c32 30 35 68 7 96 -17 17 -33 20 -110 20 l-90 0 0 -120z m185 55 l0 -30
-77 -3 -78 -3 0 36 0 36 78 -3 77 -3 0 -30z"/>
<path d="M3320 681 c0 -101 2 -121 15 -121 12 0 15 18 15 105 0 141 14 142 95
2 44 -75 66 -103 83 -105 22 -3 22 -2 22 117 0 100 -3 121 -15 121 -11 0 -15
-20 -17 -97 l-3 -98 -55 95 c-55 95 -56 95 -98 98 l-42 3 0 -120z"/>
<path d="M3590 785 c0 -11 12 -15 45 -15 l45 0 0 -105 c0 -87 3 -105 15 -105
12 0 15 18 15 105 l0 105 50 0 c38 0 50 4 50 15 0 12 -19 15 -110 15 -91 0
-110 -3 -110 -15z"/>
<path d="M3850 680 c0 -100 3 -120 15 -120 13 0 15 20 15 120 0 100 -2 120
-15 120 -12 0 -15 -20 -15 -120z"/>
<path d="M3920 680 l0 -120 100 0 c81 0 100 3 100 15 0 11 -18 15 -82 17 l-83
3 0 35 0 35 78 3 c58 2 77 6 77 17 0 11 -19 15 -77 17 l-78 3 -3 32 -3 32 82
3 c55 2 84 7 87 16 3 9 -21 12 -97 12 l-101 0 0 -120z"/>
<path d="M4160 680 c0 -100 3 -120 15 -120 12 0 15 13 15 55 l0 55 44 0 c43 0
45 -1 75 -55 17 -30 38 -55 46 -55 17 0 20 25 5 35 -6 3 -17 20 -26 36 -15 29
-14 31 10 50 19 15 26 30 26 53 0 54 -23 66 -123 66 l-87 0 0 -120z m179 73
c6 -11 6 -24 0 -35 -8 -15 -23 -18 -79 -18 l-70 0 0 35 0 35 70 0 c55 0 71 -3
79 -17z"/>
</g>
</svg>
