<?xml version="1.0" standalone="no"?>
<!DOCTYPE svg PUBLIC "-//W3C//DTD SVG 20010904//EN"
 "http://www.w3.org/TR/2001/REC-SVG-20010904/DTD/svg10.dtd">
<svg version="1.0" xmlns="http://www.w3.org/2000/svg"
 width="600.000000pt" height="600.000000pt" viewBox="0 0 600.000000 600.000000"
 preserveAspectRatio="xMidYMid meet">

<g transform="translate(0.000000,600.000000) scale(0.100000,-0.100000)"
fill="#000000" stroke="none">
<path d="M1155 3994 c-38 -8 -108 -33 -154 -56 -120 -57 -241 -178 -300 -298
-55 -112 -74 -208 -68 -330 13 -247 149 -453 373 -565 l69 -34 -120 -3 c-99
-2 -120 -6 -120 -18 0 -13 30 -15 209 -15 227 0 254 7 172 43 -84 38 -131 138
-107 230 46 167 285 194 360 40 24 -51 28 -123 8 -171 -17 -40 -90 -107 -117
-107 -13 0 -20 -7 -20 -20 0 -19 7 -20 210 -20 203 0 210 1 210 20 0 19 -7 20
-117 20 l-118 1 78 41 c337 177 457 578 276 918 -130 245 -445 386 -724 324z
m295 -26 c174 -42 344 -177 427 -341 59 -117 80 -306 48 -432 -33 -131 -125
-277 -221 -350 l-37 -28 47 57 c89 110 126 214 126 356 0 158 -50 281 -160
390 -66 67 -190 143 -190 118 0 -7 25 -26 56 -42 118 -62 222 -197 259 -336
50 -186 -24 -413 -172 -534 l-38 -31 34 40 c47 54 90 150 103 230 31 187 -76
381 -259 468 -63 30 -75 32 -173 32 -85 0 -116 -5 -160 -23 -111 -44 -208
-141 -252 -252 -19 -45 -23 -75 -23 -165 0 -100 3 -116 28 -170 15 -33 41 -77
57 -97 43 -53 37 -59 -11 -13 -182 178 -216 462 -81 671 47 73 130 148 200
182 60 30 75 62 17 38 -133 -56 -248 -188 -301 -346 -28 -83 -26 -244 4 -331
26 -77 69 -148 120 -203 23 -24 29 -34 16 -28 -41 21 -150 148 -186 217 -50
97 -71 181 -72 295 -1 116 14 180 65 286 131 268 437 412 729 342z m-57 -433
c111 -29 197 -91 255 -183 49 -78 65 -142 60 -247 -3 -79 -8 -101 -36 -156
-17 -35 -47 -82 -67 -104 l-35 -40 27 60 c76 168 11 358 -152 443 -44 23 -62
27 -145 27 -79 0 -103 -4 -141 -23 -74 -36 -125 -87 -160 -158 -28 -57 -33
-76 -33 -144 0 -67 5 -87 31 -140 l30 -61 -34 33 c-46 44 -92 140 -106 222
-49 287 226 544 506 471z m41 -249 c109 -54 171 -153 171 -276 0 -88 -22 -145
-80 -209 -48 -53 -58 -52 -31 2 14 28 20 60 20 97 -2 147 -136 247 -276 206
-130 -38 -196 -188 -135 -309 l24 -46 -27 19 c-63 45 -110 147 -110 240 0 230
237 377 444 276z"/>
<path d="M1178 3910 c-19 -11 -25 -50 -9 -50 5 0 7 9 4 19 -7 27 25 34 82 20
34 -9 49 -9 58 0 8 8 4 11 -18 11 -17 0 -46 3 -65 5 -19 3 -43 1 -52 -5z"/>
<path d="M1349 3882 c-21 -21 -40 -49 -43 -63 -3 -13 -10 -50 -16 -82 -7 -33
-18 -61 -26 -64 -22 -8 -24 -1 -14 38 11 42 28 149 23 149 -1 0 -14 -18 -28
-40 -14 -22 -32 -40 -39 -40 -16 0 -56 -46 -56 -63 0 -6 11 0 24 13 16 14 31
20 42 16 22 -9 13 -71 -16 -101 l-21 -22 44 10 c35 8 50 6 80 -8 34 -16 37
-16 66 1 24 14 33 16 43 6 17 -17 53 -15 69 5 12 15 12 16 -3 10 -14 -5 -23 3
-37 31 -10 20 -28 46 -40 56 l-21 19 20 19 c35 32 16 73 -28 61 -25 -6 -30 14
-12 48 13 23 62 26 80 4 10 -12 16 -13 24 -5 8 8 6 15 -8 26 -33 24 -66 17
-107 -24z m31 -92 c0 -26 -38 -47 -46 -25 -7 18 12 45 32 45 8 0 14 -9 14 -20z
m2 -77 c22 -20 23 -46 3 -63 -13 -11 -23 -10 -55 0 -44 14 -48 24 -24 58 18
26 50 28 76 5z"/>
<path d="M2120 2910 l0 -270 60 0 c33 0 63 0 68 0 4 0 9 54 12 121 l5 121 95
-120 95 -121 83 -1 83 0 -115 137 c-114 135 -115 137 -98 158 10 11 54 63 97
115 43 52 85 103 93 113 14 16 10 17 -66 17 l-80 0 -94 -117 -93 -117 -3 117
-3 117 -69 0 -70 0 0 -270z"/>
<path d="M2853 3163 c-29 -73 -180 -519 -178 -523 2 -3 32 -4 67 -2 l63 4 19
44 18 44 113 0 113 0 18 -45 17 -45 69 0 c62 0 69 2 64 18 -3 9 -43 130 -89
267 l-84 250 -102 3 c-90 2 -102 1 -108 -15z m142 -207 c19 -53 35 -100 35
-104 0 -4 -34 -9 -75 -10 -41 -1 -75 2 -75 6 0 11 74 212 77 209 1 -2 18 -47
38 -101z"/>
<path d="M3370 3172 c0 -5 -16 -118 -35 -252 -19 -134 -35 -251 -35 -261 0
-17 8 -19 74 -19 l73 0 18 133 c18 136 28 167 39 123 3 -14 25 -77 47 -141
l41 -115 48 0 49 0 19 53 c11 28 32 91 48 140 15 48 31 87 34 87 3 0 15 -62
25 -137 l20 -138 78 -3 c76 -3 78 -2 72 20 -3 13 -18 120 -35 238 -17 118 -33
230 -36 248 l-5 32 -79 0 -79 0 -19 -52 c-11 -29 -35 -95 -53 -145 -18 -51
-36 -93 -39 -93 -3 0 -28 64 -56 143 l-51 142 -81 3 c-45 2 -82 -1 -82 -6z"/>
<path d="M4215 3168 c-42 -117 -175 -513 -175 -522 0 -7 10 -12 23 -10 12 1
41 3 63 3 39 1 42 3 59 46 l17 46 116 -3 115 -3 16 -42 15 -43 68 0 c37 0 68
3 68 7 0 4 -39 126 -87 270 l-88 263 -103 0 c-73 0 -104 -4 -107 -12z m143
-215 c18 -51 32 -96 32 -101 0 -5 -33 -9 -72 -8 -58 1 -72 5 -70 16 8 41 68
198 73 192 3 -4 20 -48 37 -99z"/>
<path d="M4530 3174 c0 -3 41 -65 90 -137 l90 -131 0 -132 0 -132 56 -4 c31
-1 58 -1 60 1 2 2 4 62 4 133 l0 129 90 134 c50 74 90 137 90 140 0 3 -30 5
-68 5 l-67 0 -49 -82 c-56 -93 -48 -94 -119 21 l-37 61 -70 0 c-39 0 -70 -3
-70 -6z"/>
<path d="M5121 3123 c-41 -113 -161 -466 -161 -474 0 -5 29 -9 64 -9 l64 0 18
45 17 45 113 0 113 0 20 -45 20 -45 65 0 c36 0 66 3 66 7 0 4 -39 126 -87 270
l-88 263 -101 0 -102 0 -21 -57z m157 -168 c19 -52 31 -99 27 -105 -7 -11
-100 -13 -126 -2 -14 6 -12 19 19 105 19 53 37 97 41 97 3 0 21 -43 39 -95z"/>
</g>
</svg>
