<?xml version="1.0" standalone="no"?>
<!DOCTYPE svg PUBLIC "-//W3C//DTD SVG 20010904//EN"
 "http://www.w3.org/TR/2001/REC-SVG-20010904/DTD/svg10.dtd">
<svg version="1.0" xmlns="http://www.w3.org/2000/svg"
 width="310.000000pt" height="250.000000pt" viewBox="0 0 310.000000 250.000000"
 preserveAspectRatio="xMidYMid meet">

<g transform="translate(0.000000,250.000000) scale(0.100000,-0.100000)"
fill="#000000" stroke="none">
<path d="M2253 1533 c-7 -3 -28 -27 -48 -55 -31 -42 -34 -52 -22 -61 13 -10 5
-40 -55 -205 -38 -107 -67 -196 -65 -198 8 -8 99 -15 118 -9 11 4 28 34 46 85
15 44 31 80 34 80 4 0 10 -21 13 -47 4 -27 10 -63 13 -80 l5 -33 69 0 c80 0
75 -9 58 120 l-11 82 78 79 79 79 -81 0 -80 0 -54 -55 c-29 -30 -55 -53 -57
-51 -2 2 17 61 41 131 25 70 43 131 40 136 -5 8 -98 9 -121 2z"/>
<path d="M345 1453 c-50 -70 -53 -78 -35 -81 11 -2 20 -11 20 -20 0 -10 -27
-92 -60 -182 -33 -91 -60 -166 -60 -168 0 -2 32 -2 72 0 l72 3 51 142 c28 78
53 145 57 149 4 3 28 -62 55 -145 l47 -151 78 0 c63 0 79 3 87 18 10 20 181
496 181 505 0 13 -138 8 -143 -5 -2 -7 -26 -73 -52 -145 -26 -73 -51 -133 -55
-133 -5 0 -29 65 -54 145 l-47 145 -79 0 -79 0 -56 -77z"/>
<path d="M948 1475 c-21 -29 -38 -57 -38 -60 0 -3 30 -5 67 -3 l67 3 38 50
c21 28 38 53 38 58 0 4 -30 7 -67 7 l-68 -1 -37 -54z"/>
<path d="M1257 1455 c-57 -16 -73 -28 -81 -60 -4 -14 -13 -25 -21 -25 -13 0
-95 -98 -95 -113 0 -4 14 -7 30 -7 17 0 30 -3 30 -6 0 -3 -18 -57 -40 -119
-22 -62 -40 -116 -40 -119 0 -4 39 -5 87 -4 l87 3 39 55 38 55 -30 3 c-36 4
-36 0 -14 70 11 35 24 57 36 60 10 2 36 30 58 61 l40 56 -31 3 c-34 4 -35 7
-14 80 7 26 -5 27 -79 7z"/>
<path d="M2653 1371 c-44 -4 -68 -12 -82 -26 -21 -21 -101 -232 -101 -266 0
-11 11 -31 25 -44 23 -24 30 -25 139 -25 112 0 117 1 146 28 23 20 41 57 70
140 22 62 40 119 40 127 0 8 -10 26 -23 41 -21 23 -31 27 -88 29 -35 1 -92 -1
-126 -4z m84 -140 c-4 -17 -13 -46 -21 -65 -14 -33 -19 -36 -55 -36 -46 0 -47
1 -26 60 21 59 32 70 72 70 34 0 35 -1 30 -29z"/>
<path d="M891 1313 c-31 -44 -38 -59 -26 -61 20 -5 20 -5 -25 -132 -22 -61
-40 -114 -40 -116 0 -2 31 -4 69 -4 l70 0 41 58 c32 44 38 58 26 60 -22 5 -21
6 23 131 21 61 36 113 33 116 -3 3 -33 5 -68 5 l-62 0 -41 -57z"/>
<path d="M1433 1360 c-30 -12 -57 -56 -57 -94 0 -19 13 -50 32 -78 18 -26 32
-51 32 -57 0 -7 -22 -11 -54 -11 l-53 0 -37 -55 c-20 -30 -36 -57 -36 -60 0
-9 258 -5 283 4 75 29 87 99 32 181 -19 29 -35 54 -35 56 0 2 20 4 44 4 41 0
47 3 79 48 18 26 37 53 41 60 6 9 -21 12 -121 11 -70 0 -138 -4 -150 -9z"/>
<path d="M1714 1314 c-31 -45 -35 -57 -24 -64 12 -8 11 -19 -8 -78 -34 -107
-28 -142 32 -162 30 -10 41 -8 86 15 l51 26 -3 -23 c-3 -20 2 -23 37 -26 75
-6 99 4 138 60 30 44 33 53 21 63 -13 9 -10 24 20 110 19 55 38 108 42 118 6
16 0 18 -66 15 l-73 -3 -39 -110 c-42 -118 -55 -139 -80 -130 -28 11 -27 28 8
130 19 54 34 102 34 107 0 4 -31 8 -69 8 l-69 0 -38 -56z"/>
</g>
</svg>
