<?xml version="1.0" standalone="no"?>
<!DOCTYPE svg PUBLIC "-//W3C//DTD SVG 20010904//EN"
 "http://www.w3.org/TR/2001/REC-SVG-20010904/DTD/svg10.dtd">
<svg version="1.0" xmlns="http://www.w3.org/2000/svg"
 width="510.000000pt" height="200.000000pt" viewBox="0 0 510.000000 200.000000"
 preserveAspectRatio="xMidYMid meet">

<g transform="translate(0.000000,200.000000) scale(0.100000,-0.100000)"
fill="#000000" stroke="none">
<path d="M3364 1267 c-2 -7 -3 -60 -2 -118 l3 -104 73 -3 c67 -3 72 -1 72 18
0 18 -6 20 -55 20 l-55 0 0 100 c0 83 -3 100 -15 100 -9 0 -18 -6 -21 -13z"/>
<path d="M3581 1271 c-7 -5 -23 -59 -36 -120 l-22 -111 22 0 c18 0 24 7 29 40
6 39 7 40 45 40 38 0 39 -1 46 -40 6 -33 11 -40 29 -40 l22 0 -22 105 c-12 58
-27 112 -34 120 -14 16 -57 20 -79 6z m53 -43 c3 -7 7 -25 10 -40 6 -26 4 -28
-25 -28 -29 0 -30 1 -24 33 4 17 9 35 12 40 7 11 23 8 27 -5z"/>
<path d="M3745 1268 c-2 -7 -6 -61 -7 -121 -3 -105 -3 -107 20 -107 21 0 22 3
22 87 l0 87 33 -32 c18 -18 37 -32 42 -32 5 0 24 14 42 32 l33 32 0 -87 c0
-81 1 -87 20 -87 20 0 21 5 18 117 -2 79 -7 118 -15 120 -7 3 -31 -14 -55 -35
l-43 -40 -42 39 c-44 41 -61 47 -68 27z"/>
<path d="M4012 1268 c-8 -8 -12 -49 -12 -120 0 -101 1 -108 20 -108 17 0 20 7
20 40 l0 40 49 0 c42 0 53 4 70 26 35 45 26 95 -20 119 -34 18 -110 20 -127 3z
m109 -38 c21 -12 25 -40 7 -58 -7 -7 -29 -12 -50 -12 -36 0 -38 1 -38 33 0 19
3 37 7 40 10 10 52 8 74 -3z"/>
<path d="M4243 1270 c-44 -18 -54 -78 -17 -114 8 -9 32 -16 53 -16 41 0 67
-20 57 -45 -7 -21 -82 -21 -90 0 -5 14 -46 22 -46 9 0 -11 23 -49 34 -56 6 -4
34 -8 62 -8 60 0 84 20 84 68 0 40 -39 72 -90 72 -44 0 -63 26 -34 47 26 19
58 16 79 -7 23 -25 45 -26 45 -1 0 45 -79 74 -137 51z"/>
<path d="M4560 1260 c-21 -21 -27 -65 -10 -75 6 -4 3 -16 -10 -32 -26 -33 -25
-63 1 -92 18 -20 29 -22 92 -20 78 3 104 13 86 35 -7 9 -7 19 1 33 10 19 8 21
-19 21 -36 0 -45 20 -25 59 11 23 12 35 4 50 -23 44 -86 55 -120 21z m85 -40
c0 -10 -12 -16 -32 -18 -32 -3 -45 13 -26 32 13 12 58 2 58 -14z m-11 -102
c23 -32 20 -38 -18 -38 -41 0 -65 23 -46 45 18 22 46 18 64 -7z"/>
<path d="M1477 1263 c-4 -3 -7 -55 -7 -115 0 -101 1 -108 20 -108 17 0 20 7
20 40 l0 40 45 0 c54 0 85 28 85 75 0 50 -35 75 -101 75 -31 0 -59 -3 -62 -7z
m116 -54 c18 -29 1 -49 -43 -49 -39 0 -40 1 -40 36 0 34 1 35 36 32 21 -2 42
-10 47 -19z"/>
<path d="M1667 1263 c-4 -3 -7 -55 -7 -115 0 -101 1 -108 20 -108 17 0 20 7
20 40 0 36 3 40 25 40 19 0 29 -10 45 -40 13 -26 27 -40 40 -40 25 0 25 7 1
47 -19 30 -19 32 -1 48 10 9 21 27 24 41 7 28 -16 79 -39 88 -22 8 -120 8
-128 -1z m123 -54 c16 -30 -4 -49 -51 -49 -38 0 -39 1 -39 35 0 34 1 35 40 35
29 0 42 -5 50 -21z"/>
<path d="M1874 1249 c-15 -17 -19 -36 -19 -94 0 -95 16 -115 91 -115 71 0 84
19 84 117 0 92 -16 113 -88 113 -37 0 -54 -5 -68 -21z m111 -94 l0 -70 -42 -3
-43 -3 0 69 c0 38 3 72 7 76 4 4 23 6 43 4 l35 -3 0 -70z"/>
<path d="M2070 1250 c-46 -46 -4 -120 68 -120 39 0 54 -12 45 -37 -7 -19 -82
-17 -89 2 -7 18 -44 20 -44 2 0 -7 7 -23 16 -35 21 -30 112 -32 139 -2 41 45
9 110 -55 110 -40 0 -66 20 -56 45 7 20 70 20 86 0 14 -17 36 -20 44 -6 3 5
-4 20 -15 35 -17 22 -28 26 -70 26 -36 0 -54 -5 -69 -20z"/>
<path d="M2257 1263 c-4 -3 -7 -55 -7 -115 0 -101 1 -108 20 -108 17 0 20 7
20 40 l0 40 43 0 c50 0 82 19 91 55 7 29 -15 79 -39 89 -22 8 -120 8 -128 -1z
m123 -54 c16 -30 -4 -49 -51 -49 -38 0 -39 1 -39 35 0 34 1 35 40 35 29 0 42
-5 50 -21z"/>
<path d="M2472 1254 c-20 -14 -22 -24 -22 -98 0 -105 10 -116 99 -116 54 0 62
2 59 18 -2 13 -15 18 -61 20 -53 3 -57 5 -57 27 0 23 4 25 50 25 43 0 50 3 50
20 0 17 -7 20 -51 20 -49 0 -50 1 -47 28 3 25 7 27 58 32 42 4 56 9 58 23 3
15 -5 17 -55 17 -37 0 -67 -6 -81 -16z"/>
<path d="M2637 1263 c-4 -3 -7 -55 -7 -115 0 -101 1 -108 20 -108 17 0 20 7
20 40 0 35 3 40 23 40 18 0 28 -10 42 -40 14 -30 24 -40 42 -40 l23 0 -20 40
-20 40 20 20 c27 27 27 83 -2 110 -17 15 -35 20 -78 20 -31 0 -60 -3 -63 -7z
m118 -68 c0 -28 -3 -30 -42 -33 l-43 -3 0 36 0 36 43 -3 c39 -3 42 -5 42 -33z"/>
<path d="M2820 1155 l0 -115 25 0 25 0 0 115 0 115 -25 0 -25 0 0 -115z"/>
<path d="M2882 1253 c2 -11 14 -19 31 -21 l27 -3 0 -95 c0 -87 1 -94 20 -94
19 0 20 7 20 95 0 95 0 95 25 95 18 0 25 5 25 20 0 18 -7 20 -76 20 -66 0 -75
-2 -72 -17z"/>
<path d="M3080 1197 c29 -53 40 -86 40 -115 0 -35 3 -42 20 -42 17 0 20 7 20
40 0 26 12 65 35 110 19 38 35 72 35 75 0 3 -9 5 -20 5 -14 0 -27 -14 -42 -45
-12 -25 -25 -45 -28 -45 -3 0 -16 20 -28 45 -17 36 -27 45 -47 45 l-26 0 41
-73z"/>
<path d="M2541 946 c-8 -9 -11 -51 -9 -122 3 -101 4 -109 23 -109 18 0 20 7
20 78 0 42 1 77 2 77 1 0 23 -36 49 -81 67 -115 78 -109 82 49 2 114 1 123
-15 120 -15 -3 -18 -16 -21 -83 l-3 -80 -36 65 c-55 99 -70 113 -92 86z"/>
<path d="M2942 948 c-8 -8 -12 -50 -12 -125 0 -106 1 -113 20 -113 17 0 19 8
22 83 l3 82 43 -77 c47 -85 53 -91 76 -82 13 5 16 26 16 126 0 108 -2 119 -17
116 -15 -3 -19 -17 -23 -81 l-5 -78 -45 77 c-47 82 -58 92 -78 72z"/>
<path d="M3140 940 c0 -15 6 -20 25 -20 l25 0 0 -100 c0 -93 1 -100 20 -100
19 0 20 7 20 100 l0 100 29 0 c22 0 29 4 27 18 -2 14 -15 18 -74 20 -67 3 -72
1 -72 -18z"/>
<path d="M1487 932 c-13 -14 -17 -38 -17 -100 0 -75 2 -82 26 -101 45 -36 116
-25 140 20 14 27 13 29 -6 29 -12 0 -28 -7 -36 -15 -9 -8 -25 -15 -37 -15 -42
0 -48 13 -45 86 l3 69 36 3 c23 2 40 -2 49 -12 14 -18 36 -21 44 -7 3 5 -4 20
-15 35 -17 22 -28 26 -73 26 -39 0 -57 -5 -69 -18z"/>
<path d="M1680 930 c-16 -16 -20 -33 -20 -95 0 -67 3 -79 25 -100 34 -35 96
-35 130 0 22 21 25 33 25 100 0 95 -16 115 -90 115 -37 0 -55 -5 -70 -20z
m118 -88 c2 -38 -2 -69 -9 -78 -14 -17 -61 -18 -77 -2 -13 13 -17 130 -5 142
4 4 25 6 48 4 l40 -3 3 -63z"/>
<path d="M1870 830 c0 -113 1 -120 20 -120 19 0 20 7 20 92 l0 92 33 -32 c18
-18 37 -32 42 -32 5 0 24 14 42 32 l33 32 0 -92 c0 -85 1 -92 20 -92 19 0 20
7 20 120 0 120 0 120 -24 120 -15 0 -36 -14 -56 -36 l-32 -37 -37 37 c-20 20
-47 36 -59 36 -21 0 -22 -3 -22 -120z"/>
<path d="M2137 943 c-4 -3 -7 -57 -7 -120 0 -106 1 -113 20 -113 17 0 20 7 20
39 l0 38 47 6 c81 9 117 74 72 131 -18 23 -27 26 -83 26 -34 0 -66 -3 -69 -7z
m124 -49 c21 -25 -1 -49 -50 -52 -41 -3 -41 -3 -41 32 0 35 1 36 39 36 23 0
44 -6 52 -16z"/>
<path d="M2364 942 c-23 -15 -34 -53 -34 -117 0 -57 3 -69 25 -90 31 -32 91
-34 129 -4 24 19 26 26 26 98 0 102 -13 121 -83 121 -29 0 -57 -4 -63 -8z
m101 -106 c0 -79 -14 -97 -62 -80 -25 8 -28 15 -31 59 -2 27 -1 59 3 72 5 21
11 24 48 21 l42 -3 0 -69z"/>
<path d="M2760 930 c-16 -16 -20 -33 -20 -95 0 -67 3 -79 25 -100 20 -21 34
-25 80 -25 48 0 55 2 55 20 0 17 -7 20 -48 20 -50 0 -72 12 -72 41 0 15 10 19
52 21 41 2 54 7 56 21 3 14 -5 17 -53 17 -56 0 -56 0 -53 28 3 26 6 27 61 30
49 3 57 6 57 22 0 18 -7 20 -60 20 -47 0 -64 -4 -80 -20z"/>
<path d="M3334 942 c-15 -10 -34 -47 -34 -67 0 -31 46 -65 90 -65 27 0 43 -5
46 -15 15 -37 -49 -61 -80 -30 -17 17 -56 20 -56 5 0 -6 11 -22 25 -35 49 -50
155 -20 155 44 0 44 -26 71 -69 71 -46 0 -75 19 -65 43 8 22 82 24 90 2 7 -18
44 -20 44 -2 0 7 -7 23 -16 35 -12 18 -25 22 -67 22 -29 0 -57 -4 -63 -8z"/>
<path d="M3590 842 c0 -71 4 -112 12 -120 7 -7 39 -12 75 -12 56 0 63 2 63 19
0 17 -8 20 -52 23 l-53 3 -3 98 c-2 89 -4 97 -22 97 -19 0 -20 -7 -20 -108z"/>
<path d="M3770 830 c0 -113 1 -120 20 -120 19 0 20 7 20 120 0 113 -1 120 -20
120 -19 0 -20 -7 -20 -120z"/>
<path d="M3857 943 c-4 -3 -7 -57 -7 -120 0 -106 1 -113 20 -113 19 0 20 7 20
92 l0 92 33 -32 c18 -18 39 -32 47 -32 8 0 29 14 47 32 l33 32 0 -92 c0 -86 1
-92 20 -92 20 0 21 5 18 117 -3 106 -5 118 -22 121 -11 2 -33 -11 -57 -34
l-39 -38 -38 37 c-36 35 -61 45 -75 30z"/>
<path d="M4130 830 c0 -113 1 -120 20 -120 19 0 20 7 20 120 0 113 -1 120 -20
120 -19 0 -20 -7 -20 -120z"/>
<path d="M4190 930 c0 -15 7 -20 25 -20 25 0 25 0 25 -95 0 -88 1 -95 20 -95
19 0 20 7 20 94 l0 95 27 3 c17 2 29 10 31 21 3 15 -6 17 -72 17 -69 0 -76 -2
-76 -20z"/>
<path d="M4376 928 c-11 -16 -16 -46 -16 -99 0 -72 2 -79 26 -98 20 -15 41
-21 80 -21 47 0 54 2 54 20 0 17 -7 20 -48 20 -50 0 -72 12 -72 41 0 15 10 19
52 21 41 2 54 7 56 21 3 14 -5 17 -53 17 -56 0 -56 0 -53 28 3 26 6 27 61 30
49 3 57 6 57 22 0 18 -7 20 -64 20 -56 0 -67 -3 -80 -22z"/>
<path d="M4557 943 c-4 -3 -7 -55 -7 -114 0 -121 -1 -119 81 -119 40 0 55 5
74 25 22 21 25 33 25 98 0 99 -16 117 -104 117 -34 0 -66 -3 -69 -7z m127 -49
c3 -9 6 -40 6 -69 0 -60 -14 -75 -69 -75 l-31 0 0 80 0 80 44 0 c31 0 46 -5
50 -16z"/>
</g>
</svg>
