<?xml version="1.0" standalone="no"?>
<!DOCTYPE svg PUBLIC "-//W3C//DTD SVG 20010904//EN"
 "http://www.w3.org/TR/2001/REC-SVG-20010904/DTD/svg10.dtd">
<svg version="1.0" xmlns="http://www.w3.org/2000/svg"
 width="1140.000000pt" height="570.000000pt" viewBox="0 0 1140.000000 570.000000"
 preserveAspectRatio="xMidYMid meet">

<g transform="translate(0.000000,570.000000) scale(0.100000,-0.100000)"
fill="#000000" stroke="none">
<path d="M7514 4555 c-74 -23 -128 -57 -190 -119 -146 -147 -173 -348 -71
-539 76 -144 257 -238 432 -224 167 14 317 123 382 276 24 59 27 78 27 176 0
102 -2 115 -31 175 -17 36 -45 84 -62 108 -39 53 -147 124 -223 146 -67 19
-205 20 -264 1z m282 -128 c107 -55 194 -190 194 -302 0 -142 -100 -278 -237
-324 -113 -38 -111 -31 24 103 91 90 106 110 106 137 0 41 -36 73 -72 64 -15
-3 -87 -67 -168 -147 -100 -100 -146 -139 -157 -135 -9 4 -16 12 -16 19 0 7
86 97 190 200 174 172 190 191 190 223 0 44 -38 73 -76 59 -13 -5 -110 -94
-214 -198 -179 -179 -192 -189 -208 -173 -16 16 -8 26 131 165 122 122 147
152 147 176 0 39 -26 66 -62 66 -24 0 -50 -21 -141 -111 -111 -109 -112 -110
-115 -79 -8 73 82 201 172 247 76 39 94 43 181 39 63 -2 91 -8 131 -29z"/>
<path d="M2365 3393 c5 -10 16 -38 25 -63 9 -25 22 -58 28 -73 7 -16 12 -32
12 -37 0 -5 7 -26 16 -47 25 -56 20 -43 200 -528 91 -247 172 -463 179 -480
12 -27 30 -77 82 -222 l15 -42 250 -3 c137 -2 252 0 254 4 8 13 45 149 64 233
9 44 22 99 29 123 6 23 16 60 21 82 19 72 33 50 69 -110 12 -52 36 -148 53
-212 l32 -118 252 0 c192 0 253 3 257 13 16 43 238 636 279 747 28 74 56 145
62 158 l12 23 11 -23 c10 -19 79 -202 129 -338 7 -19 45 -120 84 -225 83 -220
130 -347 130 -352 0 -9 1959 -2 1999 8 127 29 259 132 312 244 93 196 60 404
-87 551 -117 117 -199 144 -441 144 -133 0 -181 3 -202 15 -46 24 -55 74 -20
119 l20 26 450 0 449 0 2 -557 3 -558 253 -3 252 -2 0 310 c0 185 4 310 9 310
10 0 51 -52 51 -64 0 -4 20 -39 43 -79 52 -85 213 -363 247 -424 l24 -43 253
0 253 0 0 755 0 755 -250 0 -250 0 0 -310 c0 -190 -4 -310 -10 -310 -5 0 -28
33 -51 73 -23 39 -72 124 -110 187 -123 211 -184 315 -194 335 -10 20 -21 20
-775 20 -797 0 -808 -1 -900 -43 -93 -42 -194 -150 -235 -249 -93 -229 6 -491
227 -602 102 -50 165 -61 364 -61 137 0 152 -2 172 -20 38 -36 28 -101 -19
-125 -39 -20 -969 -23 -969 -2 0 6 -1 257 -3 557 l-2 545 -250 0 -250 0 -2
-510 c-2 -280 -3 -525 -3 -542 0 -48 -14 -40 -34 20 -10 28 -24 66 -32 84 -8
17 -14 36 -14 42 0 6 -6 25 -14 43 -19 45 -38 94 -82 213 -20 55 -50 134 -65
175 -15 41 -39 107 -53 145 -15 39 -30 79 -35 90 -5 11 -26 66 -46 122 -21 56
-43 107 -50 113 -8 7 -110 9 -296 8 l-284 -3 -17 -35 c-9 -19 -22 -48 -27 -65
-5 -16 -19 -55 -31 -85 -11 -30 -30 -82 -41 -115 -11 -33 -33 -91 -49 -130
-16 -38 -43 -112 -61 -163 -18 -51 -38 -91 -44 -89 -8 3 -135 479 -173 647
l-8 35 -251 3 -250 2 -13 -47 c-6 -27 -16 -59 -20 -73 -5 -14 -25 -92 -45
-175 -20 -82 -42 -172 -50 -200 -7 -27 -22 -83 -32 -122 -9 -40 -21 -73 -25
-73 -5 0 -13 12 -18 28 -6 15 -14 36 -19 47 -9 20 -97 255 -131 350 -10 28
-36 97 -58 155 l-40 105 -252 3 c-238 2 -252 1 -245 -15z"/>
</g>
</svg>
